<svg xmlns="http://www.w3.org/2000/svg" width="48.11" height="48.03" viewBox="0 0 48.11 48.03" id="dartboard-small" data-supported-dps="48x48">
  <path d="M24.05 0a24 24 0 1024 24 24 24 0 00-24-24z" fill="#d1dde9"/>
  <path d="M24.05 2a22 22 0 1022 22 22 22 0 00-22-22z" fill="#fff"/>
  <path d="M24.05 6a18 18 0 1018 18 18 18 0 00-18-18z" fill="#56687a"/>
  <path d="M24.05 8a16 16 0 1016 16 16 16 0 00-16-16z" fill="#fff"/>
  <path d="M24.05 12a12 12 0 1012 12 12 12 0 00-12-12z" fill="#fdc2b1"/>
  <circle cx="24.05" cy="24.02" r="10" fill="#fff"/>
  <path d="M24.05 18a6 6 0 106 6 6 6 0 00-6-6z" fill="#f5987e"/>
  <circle cx="24.05" cy="24.02" r="4" fill="#fff"/>
  <path fill="#56687a" d="M32.69 14.03l-8.64 8.72v2.84l10-10.11-1.36-1.45z"/>
  <path d="M46.62 7.45l-4-2-2-3.95a.78.78 0 00-1-.36 1 1 0 00-.33.3l-9 14.35a1.48 1.48 0 00.19 1.83 1.47 1.47 0 001.83.15l14.37-8.95a.77.77 0 00.25-1.08.77.77 0 00-.31-.29z" fill="#f5987e"/>
</svg>
